<svg width="1443" height="1415" viewBox="0 0 1443 1415" fill="none" xmlns="http://www.w3.org/2000/svg">
<path d="M307.192 495.398C501.628 476.092 681.663 580.344 602.928 797.052C565.875 908.593 496.333 1044.36 437.777 1146.97C388.188 1233.85 318.282 1369.45 216.936 1399.88C85.287 1439.38 24.0321 1323.31 69.5463 1209.72C90.2544 1158.02 137.305 1108.93 178.046 1071.2C281.056 975.817 376.699 898.859 480.504 803.809C580.363 712.374 547.56 575.365 392.648 625.713C318.711 649.765 264.702 709.373 180.447 693.284C138.983 685.369 106.344 652.354 112.274 608.338C122.954 529.071 239.668 500.217 307.192 495.398Z" fill="#FF4081"/>
<path d="M810.351 693.794C875.408 686.731 951.586 726.407 1011.01 752.195C1104.42 792.728 1294.89 889.749 1352.35 979.039C1391.11 1039.26 1365.16 1114.66 1302.42 1130.59C1224.01 1144.07 1174.14 1098.07 1124.79 1048.06C1049.08 971.361 975.959 875.752 904.926 800.774C827.13 726.131 741.11 756.676 770.094 861.299C787.054 922.468 857.377 993.518 811.769 1060.12C779.004 1107.97 721.313 1083.77 696.4 1039.47C639.896 938.979 663.899 706.825 810.327 693.794H810.351Z" fill="#FF4081"/>
<path d="M711.425 493.443C646.368 500.506 559.603 453.109 500.183 427.321C406.771 386.787 229.534 294.552 177.082 213.025C138.323 152.8 148.599 70.1278 227.011 56.6473C305.423 43.1668 355.194 92.4651 402.725 140.628C474.738 213.599 549.563 315.874 625.967 392.088C686.457 457.246 785.537 434.932 756.553 330.308C739.593 269.14 665.031 187.619 716.225 123.253C753.628 76.2318 805.003 106.361 827.127 149.316C882.814 257.43 864.092 476.552 711.45 493.443L711.425 493.443Z" fill="#FF4081"/>
<path d="M924.576 562.936C924.574 562.932 924.579 562.929 924.582 562.932C967.202 607.231 1047.64 533.15 1092.14 528.693C1124.49 525.456 1164.14 538.302 1163.19 577.923C1163.19 642.599 1045.53 652.21 997.559 647.425C904.901 638.183 837.945 577.538 871.778 475.12C900.133 389.263 992.088 190.918 1060.93 134.853C1134.43 74.9879 1221.94 120.305 1193.44 214.49C1172.21 284.607 1028.67 386.593 970.278 440.851C939.473 469.478 889.076 522.4 924.569 562.939C924.572 562.942 924.578 562.94 924.576 562.936Z" fill="#FF4081"/>
</svg>
