<svg width="1149" height="1759" viewBox="0 0 1149 1759" fill="none" xmlns="http://www.w3.org/2000/svg">
<path d="M361.996 572.359C640.672 547.264 898.706 682.781 785.859 964.48C732.754 1109.47 633.082 1285.96 549.156 1419.34C478.084 1532.27 377.891 1708.54 232.637 1748.09C43.9508 1799.45 -43.8427 1648.57 21.3906 1500.9C51.0703 1433.7 118.506 1369.89 176.898 1320.84C324.537 1196.86 461.617 1096.82 610.395 973.263C753.518 854.406 706.504 676.308 484.476 741.756C378.506 773.02 301.097 850.506 180.339 829.591C120.911 819.302 74.1309 776.386 82.6306 719.169C97.9369 616.131 265.217 578.624 361.996 572.359Z" fill="#FFBACA"/>
<path d="M942.103 570.312C848.878 579.486 724.546 517.919 639.4 484.422C505.543 431.77 251.567 311.961 176.405 206.061C120.866 127.831 135.591 20.4429 247.953 2.93229C360.314 -14.5783 431.634 49.458 499.745 112.02C602.938 206.806 710.16 339.657 819.644 438.655C906.324 523.293 1048.3 494.308 1006.77 358.407C982.466 278.951 875.621 173.058 948.98 89.4497C1002.58 28.3716 1076.2 67.5083 1107.9 123.304C1187.7 263.74 1160.87 548.371 942.137 570.312L942.103 570.312Z" fill="#FFBACA"/>
</svg>
